<svg width="1024" height="1024" viewBox="0 0 1024 1024" fill="none" xmlns="http://www.w3.org/2000/svg">
<g clip-path="url(#clip0_8_99)">
<rect x="-103" width="1227" height="1749" fill="url(#paint0_linear_8_99)"/>
<rect x="-103" width="1227" height="1749" fill="url(#paint1_linear_8_99)"/>
<path fill-rule="evenodd" clip-rule="evenodd" d="M565.085 162.029C598.731 161.892 602.477 162.125 617.721 165.297C626.745 167.17 637.354 169.631 641.305 170.765C646.022 172.119 649.44 174.115 651.258 176.59C652.79 178.654 654.034 182.195 654.02 184.451C654.006 187.131 647.676 199.914 617.502 254.177L623.764 257.021C627.374 258.662 632.801 263.009 636.575 267.275C640.184 271.349 644.04 277.461 645.133 280.838C646.241 284.215 647.157 290.681 647.17 295.193C647.184 301.756 646.295 305.201 638.229 321.375L649.167 328.716C655.182 332.763 667.514 343.482 676.579 352.547C688.309 364.277 696.061 373.547 703.512 384.744C709.254 393.384 717.307 407.548 721.381 416.189C725.469 424.83 730.733 437.763 733.085 444.9C735.436 452.037 738.553 464.041 740.003 471.56C741.452 479.08 743.147 490.619 743.762 497.209C744.364 503.798 745.02 509.172 745.211 509.172C745.403 509.158 754.631 503.142 765.719 495.773C780.485 485.984 788.264 481.732 794.772 479.886C801.485 477.986 805.997 477.576 813.229 478.232C819.682 478.806 825.588 480.42 831.344 483.181C836.047 485.437 842.651 490.058 846.042 493.435C849.432 496.812 854.04 503.429 856.295 508.132C859.946 515.761 860.397 518.086 860.424 529.666C860.438 537.171 859.659 544.964 858.579 548.123C857.553 551.13 855.229 555.943 853.424 558.814C851.62 561.685 810.399 601.375 761.809 646.998C696.307 708.507 671.397 731.08 665.422 734.32C660.993 736.726 653.364 739.638 648.483 740.8C640.895 742.605 624.817 742.906 436.569 742.947L440.028 748.074C441.928 750.89 443.473 754.582 443.446 756.277C443.418 757.972 442.53 761.048 441.463 763.113C440.383 765.177 418.399 787.927 345.651 860.47L333.346 860.498L248.307 775.404C184.897 711.939 163.049 689.271 162.379 686.209C161.874 683.953 161.874 680.576 162.379 678.689C162.899 676.734 183.571 654.996 210.723 627.843C237.875 600.691 259.614 580.019 261.569 579.5C263.456 578.994 266.682 578.966 268.747 579.418C270.811 579.882 274.502 582.015 281.393 588.099L304.635 567.646C317.418 556.394 332.499 544.062 338.131 540.234C343.778 536.392 354.538 530.308 362.057 526.713C369.577 523.117 378.573 519.384 388.389 516.677L389.237 500.955C389.702 492.314 391.301 479.08 392.805 471.56C394.309 464.041 397.467 452.037 399.819 444.9C402.17 437.763 407.434 424.83 411.522 416.189C415.596 407.548 423.649 393.384 429.391 384.744C436.842 373.547 444.594 364.277 456.325 352.547C465.389 343.482 477.721 332.763 494.674 321.375L490.19 312.392C486.54 305.064 485.719 301.81 485.747 294.851C485.774 289.902 486.895 283.285 488.426 279.129C490.245 274.166 493.307 269.832 498.338 265.06C502.344 261.273 507.922 257.431 515.866 254.861L497.395 221.707C484.215 198.041 478.924 187.281 478.938 184.109C478.952 181.129 480.196 178.381 482.711 175.769C485.815 172.543 489.329 171.216 502.877 168.14C511.901 166.09 521.43 163.902 524.069 163.287C526.708 162.672 545.165 162.111 565.085 162.029ZM538.424 189.386C532.409 190.125 524.26 191.478 520.309 192.381L513.131 194.021L542.758 247.341H590.145C613.018 206.025 619.54 193.871 619.376 193.679C619.225 193.502 613.551 192.394 606.784 191.218C600.016 190.043 584.335 188.84 571.92 188.552C559.52 188.265 544.44 188.648 538.424 189.386ZM550.045 329.947C546.655 330.562 540.202 332.121 535.69 333.42C531.178 334.705 522.565 338.164 516.549 341.103C510.534 344.029 500.389 350.359 493.991 355.144C487.606 359.929 477.543 369.007 471.637 375.324C465.745 381.627 456.598 393.248 451.321 401.15C446.057 409.052 439.112 421.043 435.899 427.81C432.7 434.578 428.202 445.966 425.918 453.103C423.635 460.24 420.792 470.863 419.602 476.687C418.399 482.511 417.045 492.67 416.567 499.246L415.706 511.209C447.329 511.318 457.528 512.152 465.28 513.765C471.678 515.091 481.522 517.757 487.155 519.685C492.801 521.613 502.645 525.81 509.03 529.009C515.428 532.209 525.573 538.443 531.588 542.845L542.526 550.857L620.456 552.224C634.237 558.705 640.69 562.834 643.698 565.582C646.706 568.33 649.782 570.586 650.534 570.586C651.286 570.599 666.147 561.248 683.565 549.791C711.114 531.689 715.338 528.449 716.063 524.88C716.514 522.625 716.87 515.857 716.856 509.841C716.842 503.826 715.899 492.752 714.764 485.232C713.629 477.713 711.401 466.953 709.815 461.306C708.215 455.673 704.524 445.201 701.612 438.064C698.686 430.927 693.477 420.154 690.018 414.138C686.559 408.123 679.573 397.664 674.487 390.896C669.387 384.129 660.077 373.752 653.774 367.818C647.485 361.898 637.409 353.804 631.393 349.826C625.378 345.847 616.764 340.966 612.253 338.984C607.741 336.988 599.743 334.144 594.479 332.64C588.764 331.027 579.112 329.715 570.553 329.373C562.665 329.072 553.436 329.332 550.045 329.947ZM798.874 507.353C796.235 508.72 764.243 529.447 727.78 553.427L661.471 597C661.348 617.48 660.706 620.597 657.247 628.103C654.977 632.984 650.397 639.97 647.047 643.607C643.124 647.886 637.354 652.002 630.778 655.228L620.606 660.232C522.21 660.929 508.825 660.615 505.762 659.261C503.602 658.291 500.977 655.802 499.952 653.738C498.926 651.673 498.092 648.748 498.092 647.244C498.092 645.74 498.926 642.814 499.952 640.75C500.977 638.685 502.973 636.375 504.395 635.623C505.926 634.816 529.251 633.982 561.667 633.572L616.354 632.888C624.694 627.597 628.7 623.632 630.628 620.679C633.499 616.291 634.128 613.679 634.128 606.228C634.128 598.777 633.499 596.166 630.628 591.777C628.7 588.824 624.694 584.873 621.741 582.986C616.381 579.595 616.108 579.568 576.706 578.884C539.6 578.242 536.702 578.009 531.588 575.289C528.581 573.689 521.499 569.068 515.866 565.035C510.219 561.002 500.991 555.451 495.358 552.716C489.711 549.968 480.182 546.181 474.167 544.281C468.151 542.38 457.692 540.084 450.924 539.168C443.788 538.211 432.877 537.841 424.948 538.306C417.428 538.744 405.438 540.589 398.288 542.421C391.151 544.24 381.307 547.535 376.413 549.75C371.532 551.951 363.219 556.517 357.956 559.894C352.692 563.285 339.567 573.703 328.78 583.054C317.993 592.42 307.219 601.744 304.854 603.781L300.534 607.486L408.542 715.644L643.698 714.92C654.977 708.877 687.352 679.509 742.819 627.529C800.637 573.347 829.294 545.58 831.454 541.642C833.874 537.213 834.53 534.164 834.188 528.9C833.887 524.32 832.588 520.328 830.319 517.046C828.446 514.326 824.782 510.662 822.198 508.925C819.19 506.888 814.979 505.589 810.577 505.302C805.86 505.015 802.128 505.672 798.874 507.353ZM230.11 647.927L195.26 682.804L339.499 827.029L409.909 756.619C298.661 645.357 266.04 613.064 265.657 613.064C265.274 613.064 249.278 628.759 230.11 647.927ZM543.893 275.902C538.629 276.9 530.782 278.732 526.461 279.963C521.088 281.494 517.711 283.394 515.825 285.965C514.294 288.029 513.063 291.72 513.09 294.168C513.104 296.615 513.747 299.841 514.499 301.345C515.251 302.849 517.862 304.941 520.309 305.994C524.26 307.689 525.887 307.593 535.006 305.119C543.059 302.918 549.649 302.302 565.768 302.22C582.885 302.125 588.135 302.617 597.555 305.146C607.864 307.922 609.19 308.004 612.936 306.131C615.192 305.009 617.653 302.849 618.405 301.345C619.157 299.841 619.772 296.465 619.772 293.826C619.772 290.463 618.651 287.879 616.012 285.144C613.1 282.123 609.34 280.55 599.264 278.144C590.624 276.066 580.78 274.863 569.87 274.548C559.862 274.261 549.731 274.781 543.893 275.902Z" fill="white"/>
<path d="M560.081 348.377C558.454 349.361 556.17 351.658 555.008 353.449C553.627 355.568 552.848 360.08 552.78 366.287L552.684 375.857C541.706 382.215 536.442 386.822 533.913 390.213C531.383 393.59 528.362 399.742 527.2 403.884C525.928 408.41 525.354 414.138 525.778 418.24C526.147 422 527.665 427.838 529.127 431.228C530.59 434.605 533.899 439.746 536.469 442.631C539.053 445.515 544.235 449.357 547.995 451.162C551.754 452.966 557.907 454.812 561.667 455.25C565.426 455.701 570.28 456.781 572.454 457.656C574.614 458.531 577.239 460.951 578.264 463.015C579.29 465.08 580.124 468.006 580.124 469.509C580.124 471.013 579.29 473.939 578.264 476.004C577.239 478.068 574.614 480.584 572.454 481.595C570.17 482.662 566.479 483.113 563.717 482.662C560.627 482.17 556.143 479.463 551.071 475.019C545.151 469.838 542.116 468.129 538.766 468.101C536.155 468.074 532.696 469.332 530.358 471.177C528.17 472.886 525.846 475.826 525.19 477.713C524.465 479.763 524.52 482.771 525.327 485.232C526.079 487.488 529.784 492.259 533.584 495.828C537.372 499.396 543.251 503.703 546.655 505.398L552.821 508.474C552.793 523.841 553.545 529.912 554.489 531.881C555.432 533.849 557.893 536.31 559.958 537.349C562.022 538.388 564.948 539.236 566.452 539.236C567.956 539.236 570.881 538.388 572.946 537.349C575.01 536.31 577.471 533.849 578.415 531.881C579.358 529.912 580.151 523.841 580.165 518.386L580.219 508.474C591.198 502.117 596.461 497.496 598.991 494.119C601.52 490.728 604.542 484.576 605.704 480.447C606.975 475.922 607.549 470.193 607.126 466.091C606.756 462.332 605.239 456.48 603.776 453.103C602.313 449.713 599.004 444.586 596.434 441.701C593.85 438.816 588.668 434.974 584.909 433.17C581.149 431.365 574.997 429.519 571.237 429.082C567.477 428.631 562.624 427.55 560.45 426.675C558.29 425.8 555.665 423.381 554.639 421.316C553.614 419.252 552.78 416.326 552.78 414.822C552.78 413.318 553.614 410.392 554.639 408.328C555.665 406.263 558.59 403.707 561.133 402.654C563.922 401.519 567.409 401.123 569.87 401.67C572.126 402.175 576.432 404.527 579.44 406.892C582.448 409.257 587.069 411.486 589.694 411.828C593.59 412.347 595.368 411.691 599.264 408.287C603.243 404.814 604.049 403.187 604.049 398.607C604.049 394.15 603.133 392.154 599.264 388.203C596.639 385.509 591.252 381.627 587.301 379.576L580.124 375.857C580.124 361.556 579.358 355.787 578.415 353.818C577.471 351.849 575.01 349.388 572.946 348.349C570.881 347.31 567.805 346.49 566.11 346.517C564.415 346.531 561.708 347.379 560.081 348.377Z" fill="white"/>
</g>
<defs>
<linearGradient id="paint0_linear_8_99" x1="-103" y1="874.5" x2="1124" y2="874.5" gradientUnits="userSpaceOnUse">
<stop stop-color="#3B82F6"/>
<stop offset="1" stop-color="#10B981"/>
</linearGradient>
<linearGradient id="paint1_linear_8_99" x1="510.5" y1="0" x2="510.5" y2="1749" gradientUnits="userSpaceOnUse">
<stop stop-color="white" stop-opacity="0"/>
<stop offset="1" stop-color="#F4F6F8"/>
</linearGradient>
<clipPath id="clip0_8_99">
<rect width="1024" height="1024" fill="white"/>
</clipPath>
</defs>
</svg>
