<svg width="700" height="700" viewBox="0 0 700 700" fill="none" xmlns="http://www.w3.org/2000/svg">
<path fill-rule="evenodd" clip-rule="evenodd" d="M403.085 0.0289657C436.731 -0.107753 440.477 0.124669 455.721 3.29654C464.745 5.16959 475.354 7.63053 479.305 8.76529C484.022 10.1188 487.44 12.1149 489.258 14.5895C490.79 16.654 492.034 20.195 492.02 22.4508C492.006 25.1305 485.676 37.9137 455.502 92.1774L461.764 95.0212C465.374 96.6618 470.801 101.009 474.575 105.275C478.184 109.349 482.04 115.461 483.133 118.838C484.241 122.215 485.157 128.681 485.17 133.193C485.184 139.756 484.295 143.201 476.229 159.375L487.167 166.716C493.182 170.763 505.514 181.482 514.579 190.547C526.309 202.277 534.061 211.547 541.512 222.744C547.254 231.384 555.307 245.548 559.381 254.189C563.469 262.83 568.733 275.763 571.085 282.9C573.436 290.037 576.553 302.041 578.003 309.56C579.452 317.08 581.147 328.619 581.762 335.209C582.364 341.798 583.02 347.172 583.211 347.172C583.403 347.158 592.631 341.142 603.719 333.773C618.485 323.984 626.264 319.732 632.772 317.886C639.485 315.986 643.997 315.576 651.229 316.232C657.682 316.806 663.588 318.42 669.344 321.181C674.047 323.437 680.651 328.058 684.042 331.435C687.432 334.812 692.04 341.429 694.295 346.132C697.946 353.761 698.397 356.086 698.424 367.666C698.438 375.171 697.659 382.964 696.579 386.123C695.553 389.13 693.229 393.943 691.424 396.814C689.62 399.685 648.399 439.375 599.809 484.998C534.307 546.507 509.397 569.08 503.422 572.32C498.993 574.726 491.364 577.638 486.483 578.8C478.895 580.605 462.817 580.906 274.569 580.947L278.028 586.074C279.928 588.89 281.473 592.582 281.446 594.277C281.418 595.972 280.53 599.048 279.463 601.113C278.383 603.177 256.399 625.927 183.651 698.47L171.346 698.498L86.3071 613.404C22.897 549.939 1.04932 527.271 0.379395 524.209C-0.126465 521.953 -0.126465 518.576 0.379395 516.689C0.898926 514.734 21.5708 492.996 48.7231 465.843C75.8755 438.691 97.6138 418.019 99.5689 417.5C101.456 416.994 104.682 416.966 106.747 417.418C108.811 417.882 112.502 420.015 119.393 426.099L142.635 405.646C155.418 394.394 170.499 382.062 176.131 378.234C181.778 374.392 192.538 368.308 200.057 364.713C207.577 361.117 216.573 357.384 226.389 354.677L227.237 338.955C227.702 330.314 229.301 317.08 230.805 309.56C232.309 302.041 235.467 290.037 237.819 282.9C240.17 275.763 245.434 262.83 249.522 254.189C253.596 245.548 261.649 231.384 267.391 222.744C274.842 211.547 282.594 202.277 294.325 190.547C303.389 181.482 315.721 170.763 332.674 159.375L328.19 150.392C324.54 143.064 323.719 139.81 323.747 132.851C323.774 127.902 324.895 121.285 326.426 117.129C328.245 112.166 331.307 107.832 336.338 103.06C340.344 99.2731 345.922 95.4313 353.866 92.861L335.395 59.7067C322.215 36.0407 316.924 25.2809 316.938 22.109C316.952 19.1286 318.196 16.3805 320.711 13.7692C323.815 10.5426 327.329 9.21647 340.877 6.14029C349.901 4.08951 359.43 1.90201 362.069 1.28678C364.708 0.671544 383.165 0.110997 403.085 0.0289657ZM376.424 27.3864C370.409 28.1247 362.26 29.4782 358.309 30.3805L351.131 32.0212L380.758 85.3415H428.145C451.018 44.0251 457.54 31.8708 457.376 31.6794C457.225 31.5016 451.551 30.3942 444.784 29.2184C438.016 28.0426 422.335 26.8395 409.92 26.5524C397.52 26.2653 382.44 26.6481 376.424 27.3864ZM388.045 167.947C384.655 168.562 378.202 170.121 373.69 171.42C369.178 172.705 360.565 176.164 354.549 179.103C348.534 182.029 338.389 188.359 331.991 193.144C325.606 197.929 315.543 207.007 309.637 213.324C303.745 219.627 294.598 231.248 289.321 239.15C284.057 247.052 277.112 259.043 273.899 265.81C270.7 272.578 266.202 283.966 263.918 291.103C261.635 298.24 258.792 308.863 257.602 314.687C256.399 320.511 255.045 330.67 254.567 337.246L253.706 349.209C285.329 349.318 295.528 350.152 303.28 351.765C309.678 353.091 319.522 355.757 325.155 357.685C330.801 359.613 340.645 363.81 347.03 367.009C353.428 370.209 363.573 376.443 369.588 380.845L380.526 388.857L458.456 390.224C472.237 396.705 478.69 400.834 481.698 403.582C484.706 406.33 487.782 408.586 488.534 408.586C489.286 408.599 504.147 399.248 521.565 387.791C549.114 369.689 553.338 366.449 554.063 362.88C554.514 360.625 554.87 353.857 554.856 347.841C554.842 341.826 553.899 330.752 552.764 323.232C551.629 315.713 549.401 304.953 547.815 299.306C546.215 293.673 542.524 283.201 539.612 276.064C536.686 268.927 531.477 258.154 528.018 252.138C524.559 246.123 517.573 235.664 512.487 228.896C507.387 222.129 498.077 211.752 491.774 205.818C485.485 199.898 475.409 191.804 469.393 187.826C463.378 183.847 454.764 178.966 450.253 176.984C445.741 174.988 437.743 172.144 432.479 170.64C426.764 169.027 417.112 167.715 408.553 167.373C400.665 167.072 391.436 167.332 388.045 167.947ZM636.874 345.353C634.235 346.72 602.243 367.447 565.78 391.427L499.471 435C499.348 455.48 498.706 458.597 495.247 466.103C492.977 470.984 488.397 477.97 485.047 481.607C481.124 485.886 475.354 490.002 468.778 493.228L458.606 498.232C360.21 498.929 346.825 498.615 343.762 497.261C341.602 496.291 338.977 493.802 337.952 491.738C336.926 489.673 336.092 486.748 336.092 485.244C336.092 483.74 336.926 480.814 337.952 478.75C338.977 476.685 340.973 474.375 342.395 473.623C343.926 472.816 367.251 471.982 399.667 471.572L454.354 470.888C462.694 465.597 466.7 461.632 468.628 458.679C471.499 454.291 472.128 451.679 472.128 444.228C472.128 436.777 471.499 434.166 468.628 429.777C466.7 426.824 462.694 422.873 459.741 420.986C454.381 417.595 454.108 417.568 414.706 416.884C377.6 416.242 374.702 416.009 369.588 413.289C366.581 411.689 359.499 407.068 353.866 403.035C348.219 399.002 338.991 393.451 333.358 390.716C327.711 387.968 318.182 384.181 312.167 382.281C306.151 380.38 295.692 378.084 288.924 377.168C281.788 376.211 270.877 375.841 262.948 376.306C255.428 376.744 243.438 378.589 236.288 380.421C229.151 382.24 219.307 385.535 214.413 387.75C209.532 389.951 201.219 394.517 195.956 397.894C190.692 401.285 177.567 411.703 166.78 421.054C155.993 430.42 145.219 439.744 142.854 441.781L138.534 445.486L246.542 553.644L481.698 552.92C492.977 546.877 525.352 517.509 580.819 465.529C638.637 411.347 667.294 383.58 669.454 379.642C671.874 375.213 672.53 372.164 672.188 366.9C671.887 362.32 670.588 358.328 668.319 355.046C666.446 352.326 662.782 348.662 660.198 346.925C657.19 344.888 652.979 343.589 648.577 343.302C643.86 343.015 640.128 343.672 636.874 345.353ZM68.1099 485.927L33.2603 520.804L177.499 665.029L247.909 594.619C136.661 483.357 104.04 451.064 103.657 451.064C103.274 451.064 87.2778 466.759 68.1099 485.927ZM381.893 113.902C376.629 114.9 368.782 116.732 364.461 117.963C359.088 119.494 355.711 121.394 353.825 123.965C352.294 126.029 351.063 129.72 351.09 132.168C351.104 134.615 351.747 137.841 352.499 139.345C353.251 140.849 355.862 142.941 358.309 143.994C362.26 145.689 363.887 145.593 373.006 143.119C381.059 140.918 387.649 140.302 403.768 140.22C420.885 140.125 426.135 140.617 435.555 143.146C445.864 145.922 447.19 146.004 450.936 144.131C453.192 143.009 455.653 140.849 456.405 139.345C457.157 137.841 457.772 134.465 457.772 131.826C457.772 128.463 456.651 125.879 454.012 123.144C451.1 120.123 447.34 118.55 437.264 116.144C428.624 114.066 418.78 112.863 407.87 112.548C397.862 112.261 387.731 112.781 381.893 113.902Z" fill="black"/>
<path d="M398.081 186.377C396.454 187.361 394.17 189.658 393.008 191.449C391.627 193.568 390.848 198.08 390.78 204.287L390.684 213.857C379.706 220.215 374.442 224.822 371.913 228.213C369.383 231.59 366.362 237.742 365.2 241.884C363.928 246.41 363.354 252.138 363.778 256.24C364.147 260 365.665 265.838 367.127 269.228C368.59 272.605 371.899 277.746 374.469 280.631C377.053 283.515 382.235 287.357 385.995 289.162C389.754 290.966 395.907 292.812 399.667 293.25C403.426 293.701 408.28 294.781 410.454 295.656C412.614 296.531 415.239 298.951 416.264 301.015C417.29 303.08 418.124 306.006 418.124 307.509C418.124 309.013 417.29 311.939 416.264 314.004C415.239 316.068 412.614 318.584 410.454 319.595C408.17 320.662 404.479 321.113 401.717 320.662C398.627 320.17 394.143 317.463 389.071 313.019C383.151 307.838 380.116 306.129 376.766 306.101C374.155 306.074 370.696 307.332 368.358 309.177C366.17 310.886 363.846 313.826 363.19 315.713C362.465 317.763 362.52 320.771 363.327 323.232C364.079 325.488 367.784 330.259 371.584 333.828C375.372 337.396 381.251 341.703 384.655 343.398L390.821 346.474C390.793 361.841 391.545 367.912 392.489 369.881C393.432 371.849 395.893 374.31 397.958 375.349C400.022 376.388 402.948 377.236 404.452 377.236C405.956 377.236 408.881 376.388 410.946 375.349C413.01 374.31 415.471 371.849 416.415 369.881C417.358 367.912 418.151 361.841 418.165 356.386L418.219 346.474C429.198 340.117 434.461 335.496 436.991 332.119C439.52 328.728 442.542 322.576 443.704 318.447C444.975 313.922 445.549 308.193 445.126 304.091C444.756 300.332 443.239 294.48 441.776 291.103C440.313 287.713 437.004 282.586 434.434 279.701C431.85 276.816 426.668 272.974 422.909 271.17C419.149 269.365 412.997 267.519 409.237 267.082C405.477 266.631 400.624 265.55 398.45 264.675C396.29 263.8 393.665 261.381 392.639 259.316C391.614 257.252 390.78 254.326 390.78 252.822C390.78 251.318 391.614 248.392 392.639 246.328C393.665 244.263 396.59 241.707 399.133 240.654C401.922 239.519 405.409 239.123 407.87 239.67C410.126 240.175 414.432 242.527 417.44 244.892C420.448 247.257 425.069 249.486 427.694 249.828C431.59 250.347 433.368 249.691 437.264 246.287C441.243 242.814 442.049 241.187 442.049 236.607C442.049 232.15 441.133 230.154 437.264 226.203C434.639 223.509 429.252 219.627 425.301 217.576L418.124 213.857C418.124 199.556 417.358 193.787 416.415 191.818C415.471 189.849 413.01 187.388 410.946 186.349C408.881 185.31 405.805 184.49 404.11 184.517C402.415 184.531 399.708 185.379 398.081 186.377Z" fill="black"/>
</svg>
